<?xml version="1.0" standalone="no"?>
<!DOCTYPE svg PUBLIC "-//W3C//DTD SVG 20010904//EN"
 "http://www.w3.org/TR/2001/REC-SVG-20010904/DTD/svg10.dtd">
<svg version="1.0" xmlns="http://www.w3.org/2000/svg"
 width="509.000000pt" height="509.000000pt" viewBox="0 0 509.000000 509.000000"
 preserveAspectRatio="xMidYMid meet">
<g transform="translate(0.000000,509.000000) scale(0.100000,-0.100000)"
fill="#00665e" stroke="none">
<path d="M1995 4828 c-11 -6 -39 -30 -61 -54 -23 -23 -54 -50 -68 -59 -14 -10
-26 -22 -26 -27 0 -15 168 -178 184 -178 7 0 24 8 37 19 13 10 50 33 81 51 32
17 61 36 64 41 8 13 -77 138 -125 182 -43 39 -54 43 -86 25z"/>
<path d="M2559 4685 c-37 -13 -167 -82 -183 -96 -10 -9 70 -144 108 -183 25
-24 32 -26 79 -20 29 4 63 12 77 19 14 6 32 11 40 10 31 -2 40 28 25 86 -23
86 -83 201 -104 198 -3 0 -22 -6 -42 -14z"/>
<path d="M1649 4483 c-105 -102 -105 -111 4 -181 105 -68 124 -72 174 -36 44
32 103 93 103 107 0 12 -180 187 -193 187 -5 0 -45 -35 -88 -77z"/>
<path d="M3445 4530 c-11 -5 -51 -9 -88 -9 -106 -1 -149 -33 -122 -91 6 -14
11 -32 10 -40 -1 -8 5 -27 12 -42 7 -15 13 -41 13 -57 0 -39 24 -52 103 -55
34 -2 72 -6 84 -9 16 -4 29 2 46 23 22 26 24 34 21 141 -2 103 -4 115 -24 131
-25 20 -27 20 -55 8z"/>
<path d="M1127 4451 c-25 -37 -48 -77 -51 -89 -4 -11 -13 -26 -21 -32 -28 -23
-15 -41 48 -70 34 -17 67 -30 74 -30 6 0 28 -9 47 -21 41 -24 67 -16 90 29 8
15 31 42 50 60 37 35 47 72 24 92 -7 6 -29 21 -48 35 -19 13 -57 40 -85 60
-27 19 -57 35 -67 35 -10 0 -35 -28 -61 -69z"/>
<path d="M2175 4430 c-75 -42 -112 -89 -95 -119 5 -9 43 -49 84 -90 58 -56 80
-71 93 -66 10 4 30 10 45 12 78 14 125 113 76 163 -14 14 -41 51 -62 83 -22
33 -45 57 -54 56 -10 0 -48 -18 -87 -39z"/>
<path d="M3050 4436 c-3 -2 -23 -5 -45 -7 -22 -1 -44 -6 -50 -10 -5 -4 -23 -8
-40 -10 -41 -4 -65 -27 -65 -60 0 -27 86 -218 99 -220 22 -4 133 -3 139 1 4 3
19 22 35 42 27 37 35 86 18 104 -6 5 -12 25 -14 44 -8 64 -31 115 -52 118 -12
2 -23 1 -25 -2z"/>
<path d="M2612 4255 c-74 -27 -67 -22 -86 -65 -15 -37 -11 -55 26 -94 10 -12
29 -37 41 -56 50 -78 150 -93 183 -28 9 18 23 38 30 46 8 7 14 20 14 28 0 20
-77 171 -91 180 -24 14 -55 11 -117 -11z"/>
<path d="M3630 4118 c-28 -25 -38 -81 -20 -103 6 -7 12 -41 12 -74 1 -34 6
-65 12 -70 6 -5 43 -19 82 -31 63 -19 75 -20 100 -9 27 14 32 20 52 69 15 36
21 198 8 209 -6 5 -45 11 -86 14 -41 3 -89 8 -105 12 -24 5 -36 2 -55 -17z"/>
<path d="M3251 4071 c-32 -30 -39 -59 -21 -77 6 -6 12 -27 14 -48 2 -20 9 -43
16 -51 7 -9 10 -18 7 -22 -11 -10 13 -42 42 -57 43 -23 76 -26 105 -11 14 8
26 12 26 9 0 -3 14 8 31 24 24 22 31 38 33 73 2 25 -2 56 -7 69 -6 14 -11 42
-12 63 -1 22 -8 43 -16 48 -8 5 -53 9 -100 9 -82 0 -89 -2 -118 -29z"/>
<path d="M2928 3971 c-57 -62 -59 -71 -31 -127 13 -27 31 -56 39 -65 8 -8 14
-20 14 -26 0 -6 16 -25 36 -43 36 -31 36 -31 58 -12 23 21 38 32 79 63 23 17
27 28 27 69 0 27 -4 52 -10 55 -5 3 -10 17 -10 30 0 13 -4 26 -9 29 -4 3 -11
19 -15 36 l-6 31 -69 -2 c-66 -2 -71 -4 -103 -38z"/>
<path d="M3533 3707 c-39 -28 -43 -35 -43 -73 0 -24 5 -46 10 -49 6 -3 10 -30
10 -59 0 -54 7 -65 57 -93 27 -15 89 -17 98 -3 3 6 15 10 26 10 36 0 59 56 59
146 0 93 -5 99 -85 127 -78 27 -87 26 -132 -6z"/>
<path d="M3898 3687 c-17 -7 -28 -19 -29 -31 -1 -12 -2 -50 -3 -86 -1 -36 -7
-74 -13 -85 -11 -22 -7 -45 9 -45 6 0 31 -14 57 -31 55 -38 112 -44 141 -17
19 18 24 32 21 52 -1 4 4 14 10 22 6 8 13 22 14 32 1 9 4 24 7 32 18 44 27 82
22 94 -4 11 -181 77 -201 75 -4 -1 -20 -6 -35 -12z"/>
<path d="M3180 3629 c-27 -28 -50 -52 -50 -53 0 -1 10 -24 23 -52 13 -27 29
-68 37 -92 19 -60 36 -66 99 -36 94 43 111 60 111 109 0 23 -8 66 -17 94 -19
60 -48 81 -112 81 -35 0 -47 -6 -91 -51z"/>
<path d="M2439 3603 c-48 -58 -110 -164 -107 -184 2 -15 23 -37 58 -60 84 -56
89 -56 148 -2 28 27 58 53 68 59 10 6 19 15 21 21 4 10 -102 124 -153 166 -20
16 -22 16 -35 0z"/>
<path d="M1629 3524 c-21 -23 -24 -35 -25 -116 -2 -122 6 -130 131 -126 l90 3
7 35 c3 19 14 61 24 92 17 55 16 59 -1 78 -10 11 -28 20 -39 20 -12 0 -46 9
-76 20 -71 26 -82 25 -111 -6z"/>
<path d="M1991 3461 c-19 -12 -53 -112 -56 -163 -1 -31 4 -56 17 -76 17 -27
22 -29 76 -27 31 2 60 3 64 4 4 0 14 14 23 31 8 16 25 40 38 53 63 66 61 92
-10 123 -32 14 -76 33 -99 44 -22 10 -46 15 -53 11z"/>
<path d="M2680 3333 c-14 -9 -31 -23 -38 -30 -7 -7 -16 -13 -20 -13 -4 0 -24
-16 -46 -35 -35 -33 -37 -39 -31 -73 4 -20 11 -44 16 -53 11 -21 89 -49 109
-39 21 10 81 30 105 35 22 5 55 40 55 60 0 13 -38 65 -95 131 -30 34 -30 34
-55 17z"/>
<path d="M3390 3305 c-25 -13 -52 -24 -61 -25 -39 -1 -49 -51 -28 -130 24 -91
41 -115 71 -99 11 6 45 11 76 12 31 1 63 6 70 10 8 6 12 40 12 111 0 85 -3
106 -17 118 -32 28 -74 29 -123 3z"/>
<path d="M3736 3321 c-4 -6 -17 -11 -29 -11 -12 0 -31 -7 -41 -15 -17 -13 -20
-29 -21 -117 -1 -101 -1 -104 27 -132 25 -24 34 -27 66 -22 20 4 54 9 75 12
30 5 38 11 43 33 12 54 33 120 44 140 9 18 7 25 -16 46 -58 53 -135 88 -148
66z"/>
<path d="M2262 3262 c-9 -15 -20 -31 -25 -37 -25 -33 -57 -88 -57 -98 0 -15
23 -47 62 -89 27 -28 27 -28 56 -11 16 10 54 33 85 51 31 19 59 38 62 42 3 5
0 28 -7 50 -10 33 -21 46 -53 62 -22 11 -48 27 -58 36 -28 25 -46 23 -65 -6z"/>
<path d="M3060 3214 c-36 -18 -73 -35 -82 -38 -9 -3 -24 -18 -32 -34 -15 -28
-14 -31 24 -89 l39 -60 101 0 c83 0 102 3 109 16 9 19 8 62 -3 80 -4 7 -10 26
-13 42 -2 16 -10 46 -17 66 -18 52 -46 56 -126 17z"/>
<path d="M4034 3232 c-13 -9 -48 -101 -41 -108 3 -3 0 -20 -7 -37 -21 -53 -14
-75 38 -127 79 -80 122 -66 191 62 59 108 57 117 -43 177 -65 39 -113 51 -138
33z"/>
<path d="M1415 3181 c-80 -8 -125 -32 -125 -66 0 -12 9 -48 21 -81 11 -32 23
-68 26 -79 17 -56 43 -58 138 -7 l70 37 -1 93 c-1 96 -8 114 -44 110 -8 0 -46
-4 -85 -7z"/>
<path d="M1632 3163 c-9 -18 -10 -180 -1 -185 2 -2 29 -15 60 -30 47 -22 60
-25 80 -14 28 14 63 72 84 141 l16 50 -31 28 c-28 25 -37 27 -115 27 -70 0
-86 -3 -93 -17z"/>
<path d="M1958 3068 c-8 -13 -22 -45 -32 -73 -11 -27 -23 -55 -28 -62 -7 -9 8
-24 53 -53 34 -22 69 -40 77 -40 23 0 112 94 112 118 0 21 -33 80 -64 115 -25
27 -100 23 -118 -5z"/>
<path d="M4392 3070 c-13 -11 -39 -50 -58 -87 -19 -36 -39 -72 -44 -79 -17
-20 7 -65 62 -116 29 -27 61 -48 73 -48 28 0 113 81 147 139 21 36 24 49 16
71 -5 16 -22 33 -37 39 -15 7 -47 32 -70 56 -24 25 -49 45 -55 45 -6 -1 -22
-9 -34 -20z"/>
<path d="M2740 3017 c-36 -12 -68 -25 -71 -30 -7 -9 -4 -155 3 -162 3 -3 34
-7 69 -10 70 -4 138 9 143 28 2 7 8 28 15 48 10 32 8 41 -16 85 -41 74 -43 75
-143 41z"/>
<path d="M2407 2978 c-37 -24 -67 -50 -66 -58 1 -22 62 -103 88 -117 31 -15
119 -10 138 9 33 34 7 169 -38 194 -37 20 -50 17 -122 -28z"/>
<path d="M3385 2944 c-21 -7 -42 -19 -46 -26 -13 -20 -11 -142 4 -161 15 -20
86 -39 150 -41 48 -1 49 0 64 39 8 22 16 66 18 97 2 31 6 61 9 66 17 28 -136
48 -199 26z"/>
<path d="M3140 2900 c-8 -5 -36 -10 -61 -10 -50 0 -77 -15 -84 -45 -2 -11 -9
-36 -14 -54 -9 -28 -8 -40 4 -58 9 -13 19 -23 23 -24 4 -1 19 -2 33 -3 14 -2
31 -6 37 -10 7 -4 20 -9 29 -11 10 -2 29 -6 43 -10 20 -5 32 1 59 29 30 31 33
38 26 73 -4 21 -9 54 -10 73 0 20 -5 41 -9 48 -9 14 -55 16 -76 2z"/>
<path d="M3702 2901 c-7 -4 -14 -30 -16 -58 -2 -28 -7 -57 -11 -64 -21 -33
-11 -123 13 -117 4 1 23 -2 42 -6 19 -5 46 -10 60 -12 14 -2 34 -5 44 -6 21
-3 25 3 76 119 l31 72 -21 29 c-12 17 -32 34 -44 39 -26 12 -156 15 -174 4z"/>
<path d="M2155 2813 c-36 -38 -64 -75 -63 -83 3 -15 85 -59 147 -79 41 -13 51
-6 76 49 18 40 18 41 -5 83 -37 67 -60 97 -75 97 -8 0 -44 -30 -80 -67z"/>
<path d="M1505 2842 c-51 -26 -64 -46 -47 -73 7 -10 12 -29 12 -41 0 -32 31
-108 44 -109 49 -5 104 -3 118 3 30 14 46 60 45 124 -2 65 -13 86 -57 109 -35
18 -60 16 -115 -13z"/>
<path d="M1811 2821 c-19 -5 -29 -19 -41 -54 -16 -46 -20 -151 -6 -165 13 -12
121 -9 146 4 44 23 71 61 73 101 2 33 -2 39 -38 59 -22 12 -46 27 -52 33 -21
19 -57 28 -82 22z"/>
<path d="M1255 2773 c-69 -36 -115 -72 -115 -92 0 -15 66 -112 104 -153 27
-30 63 -22 112 24 40 38 45 47 41 78 -2 19 -9 45 -15 57 -7 12 -12 32 -12 45
0 31 -27 68 -48 68 -9 -1 -39 -13 -67 -27z"/>
<path d="M4067 2789 c-10 -6 -36 -47 -57 -92 -37 -78 -39 -89 -31 -159 2 -12
73 -45 114 -52 37 -7 41 -5 75 35 21 23 45 54 54 68 10 14 25 36 33 47 15 21
14 24 -25 70 -22 27 -49 59 -60 72 -20 24 -71 30 -103 11z"/>
<path d="M2675 2724 c-8 -8 -11 -39 -10 -89 1 -61 6 -80 22 -96 30 -30 85 -40
111 -20 32 24 74 116 70 153 -3 28 -9 34 -50 49 -54 19 -125 21 -143 3z"/>
<path d="M2472 2692 c-40 -3 -44 -6 -68 -54 -15 -30 -23 -59 -20 -72 7 -30 66
-56 125 -56 44 0 50 3 64 31 13 28 15 93 3 125 -6 17 -56 29 -104 26z"/>
<path d="M2961 2617 c-6 -6 -11 -16 -11 -22 0 -6 -9 -30 -20 -53 -28 -57 -25
-75 13 -97 17 -10 45 -29 60 -41 l28 -24 41 26 c67 42 81 60 85 106 2 24 0 48
-4 53 -9 11 -124 54 -159 60 -12 2 -27 -2 -33 -8z"/>
<path d="M3310 2613 c-40 -27 -49 -45 -50 -94 0 -51 13 -69 72 -93 20 -9 42
-22 50 -30 18 -17 46 -22 75 -12 15 5 26 23 38 64 9 31 21 74 27 95 13 42 6
54 -32 60 -14 2 -36 8 -50 14 -42 16 -103 15 -130 -4z"/>
<path d="M1008 2604 c-16 -8 -41 -28 -57 -43 -17 -16 -43 -37 -60 -47 -17 -10
-33 -24 -36 -32 -7 -19 18 -57 53 -79 15 -10 45 -32 67 -51 44 -37 81 -40 99
-7 6 11 26 37 44 58 17 20 32 43 32 50 0 13 -56 108 -70 117 -4 3 -12 15 -19
28 -14 26 -17 26 -53 6z"/>
<path d="M2050 2588 c-31 -50 -33 -70 -11 -121 14 -32 26 -47 39 -47 10 0 22
-3 26 -7 4 -5 13 -8 19 -8 14 -1 67 50 67 64 0 5 13 23 29 39 22 22 27 32 18
41 -6 6 -15 11 -20 11 -5 0 -36 14 -69 30 -32 17 -63 30 -68 30 -6 0 -19 -15
-30 -32z"/>
<path d="M4349 2544 c-24 -31 -58 -74 -76 -95 -36 -44 -36 -55 2 -121 18 -32
39 -53 63 -65 20 -9 40 -18 44 -20 5 -2 47 34 94 81 95 94 93 82 31 173 -42
63 -85 103 -110 103 -2 0 -24 -25 -48 -56z"/>
<path d="M3638 2528 c-12 -20 -38 -94 -39 -115 -1 -5 -5 -16 -11 -26 -6 -13
-5 -23 4 -34 16 -21 156 -86 167 -79 5 3 16 20 25 38 10 18 28 48 42 67 30 43
40 79 27 100 -15 24 -73 55 -107 56 -17 1 -45 5 -62 9 -26 6 -34 3 -46 -16z"/>
<path d="M1465 2500 c-34 -35 -45 -73 -25 -85 6 -4 21 -28 35 -55 35 -69 47
-73 117 -40 82 39 89 46 77 78 -6 15 -12 44 -14 66 -5 47 -6 48 -45 52 -17 2
-39 8 -49 13 -31 17 -60 8 -96 -29z"/>
<path d="M1778 2512 c-10 -2 -19 -9 -19 -15 -5 -48 -4 -97 3 -123 12 -47 81
-72 108 -39 7 8 18 15 24 15 7 0 25 13 40 29 24 25 27 35 22 64 -11 60 -26 71
-97 72 -35 0 -72 -1 -81 -3z"/>
<path d="M2283 2443 c-10 -16 -27 -38 -38 -51 -21 -24 -27 -54 -19 -85 5 -17
101 -67 130 -67 30 0 67 144 46 177 -9 14 -74 53 -89 53 -7 0 -21 -12 -30 -27z"/>
<path d="M2589 2436 c-2 -2 -19 -7 -38 -9 -42 -7 -58 -23 -64 -63 -3 -17 -10
-41 -16 -52 -6 -12 -9 -33 -5 -47 12 -49 73 -59 139 -22 36 20 41 27 47 72 3
28 9 61 13 76 5 21 2 27 -20 37 -26 12 -48 15 -56 8z"/>
<path d="M1249 2388 c-41 -46 -89 -110 -89 -120 0 -11 45 -54 104 -101 40 -32
53 -31 124 9 23 14 42 31 42 40 0 20 -39 103 -69 144 -14 19 -26 36 -26 37 0
1 -15 5 -33 8 -25 4 -37 0 -53 -17z"/>
<path d="M2749 2363 c-10 -24 -19 -64 -19 -88 0 -40 3 -45 42 -68 43 -25 43
-25 78 -6 38 20 73 54 83 81 4 11 -9 33 -41 68 -38 41 -54 51 -85 54 -37 4
-39 2 -58 -41z"/>
<path d="M3156 2331 c-52 -53 -56 -70 -23 -112 75 -99 78 -101 121 -95 41 6
86 43 86 70 0 8 7 27 15 42 22 42 19 48 -27 74 -24 12 -50 29 -58 36 -8 7 -27
17 -41 23 -24 8 -31 5 -73 -38z"/>
<path d="M3978 2366 c-23 -12 -81 -86 -99 -126 -5 -13 -15 -28 -22 -32 -21
-13 13 -55 67 -82 28 -15 59 -32 69 -39 15 -10 27 -2 92 64 l74 75 -11 36
c-17 57 -49 90 -101 103 -34 9 -53 9 -69 1z"/>
<path d="M723 2258 c-34 -35 -63 -72 -64 -83 -4 -27 28 -85 46 -85 9 0 34 -9
58 -19 83 -39 97 -33 140 49 34 64 48 120 29 120 -4 0 -29 18 -56 40 -26 22
-58 40 -70 40 -13 0 -45 -24 -83 -62z"/>
<path d="M1988 2300 c-50 -27 -80 -67 -68 -90 9 -16 96 -80 109 -80 20 1 91
101 91 128 -1 53 -71 75 -132 42z"/>
<path d="M1645 2238 c-76 -38 -105 -56 -105 -66 0 -5 16 -26 36 -48 19 -21 42
-51 50 -66 8 -15 24 -33 36 -39 25 -13 30 -8 87 85 18 30 39 60 46 66 19 16 9
36 -33 62 -21 12 -42 26 -47 30 -6 3 -38 -7 -70 -24z"/>
<path d="M3482 2234 c-17 -11 -62 -107 -62 -130 0 -3 30 -37 66 -75 59 -61 69
-67 88 -57 54 28 141 145 131 177 -6 20 -140 92 -181 97 -12 1 -31 -4 -42 -12z"/>
<path d="M2974 2175 c-16 -15 -41 -33 -56 -43 -16 -9 -28 -21 -29 -27 -6 -71
-3 -91 19 -116 16 -20 29 -26 45 -22 12 2 45 6 74 8 63 4 63 4 87 49 l19 35
-32 36 c-17 20 -31 39 -31 44 0 10 -50 61 -60 61 -4 0 -20 -11 -36 -25z"/>
<path d="M2198 2183 c-10 -2 -18 -8 -18 -13 0 -5 -20 -32 -45 -60 -44 -50 -45
-51 -30 -80 16 -31 23 -33 105 -30 47 2 60 8 64 31 1 8 8 25 15 38 7 13 17 36
21 51 8 26 5 29 -38 47 -58 22 -54 21 -74 16z"/>
<path d="M1042 2148 c-10 -18 -34 -63 -52 -100 -39 -80 -37 -86 53 -118 34
-12 66 -26 71 -31 12 -11 57 -12 71 -1 6 4 19 20 29 37 23 35 26 127 4 134 -7
2 -38 28 -69 58 -31 29 -63 53 -72 53 -8 0 -24 -15 -35 -32z"/>
<path d="M2596 2121 c-13 -14 -16 -27 -10 -43 4 -13 8 -36 9 -53 2 -54 48
-108 71 -85 5 5 21 11 36 14 14 2 35 9 46 15 11 6 22 8 24 5 3 -2 11 2 17 10
10 11 10 24 0 58 -7 24 -17 49 -22 55 -32 43 -141 58 -171 24z"/>
<path d="M4172 2056 c-69 -68 -84 -87 -77 -102 9 -20 12 -29 14 -41 6 -35 122
-106 136 -83 3 5 37 28 75 50 77 45 97 69 80 99 -5 11 -10 28 -10 38 0 34 -47
89 -91 106 l-42 17 -85 -84z"/>
<path d="M2414 2112 c-19 -12 -55 -92 -59 -129 -2 -29 3 -41 26 -64 26 -25 37
-29 88 -29 55 0 59 2 65 26 4 14 2 40 -3 58 -6 17 -12 42 -14 56 -3 29 -25 72
-41 82 -6 4 -20 8 -31 8 -11 0 -25 -4 -31 -8z"/>
<path d="M1853 2088 c-29 -32 -63 -90 -63 -108 0 -9 19 -30 42 -48 38 -29 48
-32 83 -26 63 10 95 38 95 82 0 20 -4 42 -8 48 -6 9 -116 74 -125 74 -2 0 -13
-10 -24 -22z"/>
<path d="M1408 2067 c-49 -23 -63 -41 -74 -92 -13 -66 -12 -69 48 -99 51 -25
128 -41 128 -25 0 3 16 24 35 46 19 23 35 45 35 50 0 4 -11 20 -25 35 -14 15
-25 31 -25 36 0 12 -58 72 -68 71 -4 0 -28 -11 -54 -22z"/>
<path d="M3768 2006 c-18 -19 -48 -55 -67 -81 l-33 -47 58 -59 c32 -32 67 -59
78 -59 10 0 34 11 52 25 18 14 37 25 43 25 6 0 11 4 11 10 0 5 14 16 30 25 26
14 30 21 30 59 0 28 -6 48 -17 58 -16 14 -136 78 -147 78 -2 0 -19 -15 -38
-34z"/>
<path d="M3274 2015 c-63 -28 -76 -80 -39 -165 13 -30 25 -62 28 -71 7 -22 51
-29 83 -13 30 16 108 94 117 118 9 22 -110 146 -138 145 -11 0 -34 -7 -51 -14z"/>
<path d="M2118 1909 c-25 -14 -22 -41 11 -107 41 -81 53 -89 96 -69 62 29 93
129 53 167 -17 16 -35 20 -82 20 -34 0 -69 -5 -78 -11z"/>
<path d="M2780 1889 c-14 -6 -32 -12 -40 -14 -8 -3 -33 -11 -55 -19 -34 -12
-40 -19 -43 -46 -6 -56 6 -78 51 -102 23 -12 46 -21 52 -19 5 1 27 -3 48 -10
67 -22 86 19 78 168 -1 14 -12 28 -31 38 -16 8 -30 15 -32 14 -2 0 -14 -5 -28
-10z"/>
<path d="M3047 1889 c-10 -6 -32 -12 -48 -13 -17 -1 -35 -9 -40 -17 -10 -16
-10 -177 1 -184 4 -2 22 -7 40 -10 18 -3 40 -10 49 -15 12 -6 31 1 70 27 29
19 55 41 57 48 6 14 -48 130 -73 158 -18 19 -30 21 -56 6z"/>
<path d="M1626 1828 c-74 -101 -60 -151 44 -163 116 -13 113 -14 117 25 3 19
9 39 14 45 5 5 9 26 9 47 0 31 -5 40 -28 52 -15 8 -36 23 -46 35 -33 37 -59
27 -110 -41z"/>
<path d="M939 1843 c-8 -2 -21 -20 -28 -41 -8 -20 -22 -57 -33 -81 -29 -65
-29 -76 3 -107 27 -26 38 -29 106 -31 41 -1 82 1 89 4 24 9 44 59 44 110 0 79
-11 99 -60 108 -3 0 -27 11 -54 23 -27 12 -49 21 -50 21 0 -1 -8 -3 -17 -6z"/>
<path d="M1933 1813 c-41 -14 -43 -17 -43 -55 0 -23 -5 -58 -12 -79 -6 -22 -8
-42 -4 -47 11 -10 167 -11 187 -1 33 17 31 55 -6 129 -39 77 -44 80 -122 53z"/>
<path d="M1247 1792 c-9 -10 -19 -36 -21 -59 -3 -22 -9 -51 -14 -64 -4 -13 -7
-30 -6 -36 1 -7 2 -22 3 -32 1 -17 11 -20 69 -24 37 -3 79 -8 93 -12 41 -11
93 44 105 110 5 26 -39 85 -62 85 -8 0 -34 9 -57 21 -60 30 -90 33 -110 11z"/>
<path d="M2375 1761 c-19 -25 -35 -51 -35 -58 0 -18 92 -103 112 -103 30 0 68
30 89 71 24 47 24 66 1 104 -17 27 -24 30 -76 31 -57 2 -58 2 -91 -45z"/>
<path d="M3486 1734 c-53 -53 -65 -71 -60 -88 13 -44 72 -141 87 -144 18 -4
171 70 200 96 9 8 17 23 17 32 0 18 -151 170 -168 170 -6 0 -40 -30 -76 -66z"/>
<path d="M3980 1719 c-30 -21 -64 -43 -75 -48 -24 -11 -64 -52 -64 -66 -1 -14
100 -115 124 -124 29 -12 178 44 197 73 25 37 -6 153 -45 169 -6 3 -28 12 -47
20 -34 15 -36 14 -90 -24z"/>
<path d="M2181 1600 c-19 -21 -28 -39 -26 -58 2 -29 29 -112 46 -143 13 -25
50 -24 80 2 13 12 40 31 59 44 53 33 64 50 50 74 -6 12 -15 21 -20 21 -5 0
-32 20 -60 45 -60 54 -88 57 -129 15z"/>
<path d="M2596 1574 c-31 -30 -56 -60 -56 -67 0 -14 92 -112 118 -126 30 -16
85 10 95 44 5 17 14 48 21 70 16 56 10 78 -27 97 -83 42 -90 41 -151 -18z"/>
<path d="M3210 1599 c-25 -16 -49 -37 -53 -45 -16 -28 11 -176 36 -201 13 -13
18 -13 47 2 18 9 43 19 55 21 12 2 35 10 51 18 15 8 31 13 34 11 4 -3 15 4 24
14 15 17 13 24 -31 112 -46 90 -50 94 -83 97 -26 1 -47 -6 -80 -29z"/>
<path d="M1573 1581 c-4 -3 -19 -21 -32 -40 -22 -31 -23 -37 -12 -85 6 -28 19
-61 29 -73 19 -25 65 -33 97 -17 11 6 35 11 54 13 45 2 62 17 57 50 -2 14 2
40 10 58 11 28 11 35 -4 52 -9 11 -32 23 -51 26 -19 3 -38 8 -43 11 -13 9 -95
12 -105 5z"/>
<path d="M2891 1551 c-12 -16 -26 -49 -31 -73 -5 -24 -12 -55 -16 -71 -8 -33
6 -51 57 -78 33 -17 42 -17 81 -5 24 7 49 11 55 9 7 -3 21 1 33 7 16 9 18 15
10 30 -5 10 -10 45 -10 78 0 51 -4 63 -26 86 -15 14 -29 26 -33 27 -36 5 -50
7 -72 13 -22 6 -30 3 -48 -23z"/>
<path d="M1877 1513 c-4 -3 -7 -37 -7 -75 0 -63 3 -71 32 -103 17 -19 37 -35
44 -35 8 0 43 14 78 32 72 35 80 50 59 111 -13 40 -13 39 -13 62 0 12 -17 15
-93 15 -52 0 -97 -3 -100 -7z"/>
<path d="M903 1469 c-37 -13 -65 -196 -33 -223 31 -28 85 -40 120 -27 18 6 48
11 65 11 18 0 35 6 38 13 3 7 5 59 5 116 1 77 -2 103 -13 107 -19 8 -163 10
-182 3z"/>
<path d="M1220 1470 c-12 -7 -15 -32 -14 -120 0 -60 3 -112 6 -115 13 -13 52
-13 89 0 22 8 43 14 47 13 18 -4 94 27 100 41 21 44 -11 158 -49 178 -28 15
-157 17 -179 3z"/>
<path d="M3653 1437 c-45 -23 -85 -48 -88 -56 -8 -21 63 -157 89 -169 16 -7
34 -6 62 4 21 8 49 14 62 14 23 0 62 18 74 35 4 6 8 33 7 60 0 46 -4 54 -49
103 -27 28 -55 52 -62 51 -7 0 -50 -20 -95 -42z"/>
<path d="M4110 1392 c-47 -20 -92 -42 -100 -50 -24 -25 -19 -111 10 -152 14
-19 29 -38 34 -41 11 -9 98 -6 112 3 6 4 37 9 68 12 32 2 60 7 63 10 3 2 5 43
5 90 l0 86 -43 40 c-24 22 -48 40 -54 39 -5 -1 -48 -17 -95 -37z"/>
<path d="M2415 1377 c-27 -17 -62 -45 -77 -61 l-27 -28 24 -49 c40 -78 116
-106 168 -61 9 8 17 21 17 27 0 7 7 19 16 26 19 16 38 58 35 79 -2 16 -86 100
-98 100 -5 0 -30 -15 -58 -33z"/>
<path d="M1715 1288 c-96 -23 -113 -29 -133 -46 l-22 -19 47 -96 c50 -103 61
-111 104 -79 13 9 40 26 59 36 97 52 111 108 44 177 -21 21 -43 38 -49 38 -5
-1 -28 -6 -50 -11z"/>
<path d="M3370 1285 c-19 -7 -56 -21 -81 -30 -46 -17 -57 -38 -35 -73 4 -7 9
-31 10 -54 4 -64 26 -75 138 -74 l93 1 20 37 20 37 -39 80 c-46 94 -60 102
-126 76z"/>
<path d="M2055 1239 c-60 -31 -70 -40 -76 -69 -6 -30 -2 -38 42 -86 72 -75 89
-75 166 1 35 34 63 68 63 74 0 16 -49 111 -58 112 -40 8 -77 -1 -137 -32z"/>
<path d="M2672 1267 c-5 -7 -24 -40 -41 -74 -17 -34 -35 -64 -41 -68 -5 -3
-10 -17 -10 -30 0 -31 53 -64 114 -70 25 -2 54 -8 64 -13 18 -10 49 -8 60 3 4
4 10 43 13 88 3 45 9 89 12 98 18 38 -144 100 -171 66z"/>
<path d="M2988 1219 l-53 -16 -7 -54 c-3 -30 -10 -67 -15 -84 -22 -78 -12 -85
116 -85 92 0 112 3 132 19 21 17 22 22 11 45 -7 15 -12 50 -12 79 0 101 -56
133 -172 96z"/>
<path d="M1400 1150 c-8 -5 -25 -10 -38 -10 -30 0 -78 -25 -86 -45 -3 -9 0
-28 8 -43 8 -15 13 -46 13 -69 -1 -75 54 -127 103 -95 14 9 44 26 67 37 23 12
49 28 58 35 19 16 19 49 1 75 -7 11 -14 22 -14 25 -1 12 -14 47 -25 70 -14 27
-60 38 -87 20z"/>
<path d="M3830 1128 c-19 -5 -51 -14 -70 -20 -19 -6 -42 -12 -50 -13 -25 -2
-60 -16 -61 -23 -13 -70 9 -167 43 -188 15 -9 187 -13 212 -4 11 4 20 18 22
35 2 15 6 35 10 44 16 35 14 65 -6 106 -28 57 -55 74 -100 63z"/>
<path d="M2310 1063 c-51 -36 -110 -113 -109 -142 0 -15 88 -81 108 -81 5 0
11 -7 14 -14 3 -8 20 -22 36 -31 l30 -15 31 52 c16 29 30 59 30 65 0 7 10 33
22 58 l22 45 -21 22 c-20 20 -104 58 -128 58 -6 0 -21 -8 -35 -17z"/>
<path d="M1862 1018 c-6 -7 -28 -22 -49 -33 -21 -10 -46 -26 -55 -34 -22 -17
-23 -54 -4 -71 8 -6 29 -35 47 -63 38 -61 55 -77 83 -77 25 1 71 39 80 67 3
10 24 36 46 57 22 21 40 41 40 46 0 5 -14 19 -31 32 -16 13 -47 38 -68 56 -40
34 -71 41 -89 20z"/>
<path d="M2571 907 c-21 -34 -51 -119 -51 -144 0 -7 41 -33 90 -58 87 -44 91
-45 120 -30 16 8 34 25 41 36 14 28 8 174 -8 190 -7 7 -34 16 -60 20 -27 5
-62 11 -79 15 -28 5 -34 2 -53 -29z"/>
<path d="M3278 921 c-9 -13 -13 -46 -12 -97 1 -83 14 -104 59 -104 12 0 25 -4
31 -9 5 -5 40 -11 78 -13 l70 -3 32 62 33 62 -23 45 c-39 77 -37 76 -152 76
-90 0 -105 -2 -116 -19z"/>
<path d="M2911 884 c-19 -14 -21 -24 -21 -104 0 -91 4 -101 44 -107 11 -2 25
-8 33 -14 7 -6 13 -9 13 -6 0 3 16 -1 35 -9 49 -20 69 -18 105 13 32 26 32 27
28 106 -4 99 -17 113 -104 111 -33 -1 -70 4 -85 12 -22 11 -29 11 -48 -2z"/>
<path d="M1575 845 c-22 -13 -57 -33 -78 -45 -33 -18 -36 -24 -31 -48 4 -15
13 -39 21 -54 7 -15 12 -31 11 -35 0 -4 4 -21 11 -38 6 -16 14 -36 16 -42 3
-9 25 -13 61 -13 54 0 58 2 106 49 45 44 49 53 43 80 -4 17 -10 31 -13 31 -4
0 -18 21 -31 48 -19 35 -66 93 -75 92 -1 0 -19 -11 -41 -25z"/>
<path d="M2107 790 c-22 -17 -57 -63 -90 -117 -5 -7 4 -23 21 -40 16 -15 41
-47 55 -70 38 -61 59 -69 105 -43 50 28 118 155 97 183 -7 9 -17 17 -24 17 -6
0 -19 8 -29 18 -10 9 -30 23 -43 31 -13 8 -33 20 -45 28 -18 12 -24 11 -47 -7z"/>
<path d="M2411 623 c-12 -14 -24 -38 -27 -52 -3 -14 -10 -36 -15 -49 -5 -13
-6 -29 -2 -35 14 -25 118 -127 135 -132 23 -8 110 38 127 67 15 25 24 92 15
120 -5 16 -176 108 -201 108 -6 0 -21 -12 -32 -27z"/>
<path d="M1821 568 c-23 -22 -41 -45 -41 -50 0 -5 -7 -16 -15 -24 -21 -22 -20
-29 28 -124 33 -65 49 -86 66 -88 13 -2 28 1 34 7 6 6 25 11 42 11 36 0 63 25
89 82 15 33 15 41 2 70 -14 33 -137 158 -155 158 -5 0 -28 -19 -50 -42z"/>
<path d="M3228 561 l-51 -51 12 -37 c7 -21 13 -46 15 -57 2 -18 13 -24 135
-68 70 -25 89 -17 130 58 38 70 43 100 23 139 -20 41 -16 39 -80 46 -31 4 -74
10 -95 14 -35 6 -41 4 -89 -44z"/>
<path d="M2823 562 c-27 -4 -40 -19 -48 -57 -24 -104 -15 -127 61 -166 27 -13
57 -31 67 -40 27 -25 40 -19 103 44 59 59 72 95 51 143 -14 33 -178 86 -234
76z"/>
</g>
</svg>
